<?xml version="1.0" encoding="UTF-8" standalone="no"?>
<!DOCTYPE svg PUBLIC "-//W3C//DTD SVG 1.1//EN" "http://www.w3.org/Graphics/SVG/1.1/DTD/svg11.dtd">
<svg xmlns="http://www.w3.org/2000/svg" version="1.1" viewBox="0.00 0.00 235.00 208.00">
<path fill="#040404" d="
  M 59.14 115.49
  Q 59.13 117.84 59.02 120.07
  Q 58.96 121.21 58.02 120.55
  Q 50.67 115.34 43.33 111.29
  A 2.91 2.89 -75.8 0 1 41.84 108.77
  Q 41.77 82.99 41.68 67.75
  C 41.67 65.84 41.46 62.34 43.36 61.09
  Q 66.50 45.87 88.49 31.25
  A 1.49 1.48 -45.6 0 1 90.10 31.23
  L 104.45 40.29
  A 0.83 0.83 0.0 0 1 104.46 41.69
  L 60.00 70.17
  Q 59.00 70.81 59.01 72.00
  Q 59.15 94.65 59.14 115.49
  Z"
/>
<path fill="#040404" d="
  M 89.19 111.11
  A 0.59 0.59 0.0 0 0 90.10 111.58
  L 133.59 82.57
  A 0.59 0.59 0.0 0 1 134.50 83.05
  L 134.79 98.81
  A 3.92 3.91 72.9 0 1 133.04 102.13
  L 90.88 130.10
  A 3.77 3.77 0.0 0 0 89.21 133.23
  L 89.33 164.47
  Q 89.33 165.20 88.71 164.81
  L 74.07 155.56
  A 3.23 3.22 16.1 0 1 72.56 152.83
  L 72.29 83.66
  A 2.70 2.70 0.0 0 1 73.51 81.40
  L 118.85 51.71
  Q 120.61 50.56 122.36 51.72
  L 134.69 59.90
  A 1.08 1.08 0.0 0 1 135.10 60.46
  Q 135.33 61.17 134.93 61.44
  Q 113.20 75.87 90.86 90.10
  C 89.54 90.94 89.00 92.28 88.99 93.80
  Q 88.93 102.60 89.19 111.11
  Z"
/>
<path fill="#040404" d="
  M 150.45 129.56
  A 0.92 0.92 0.0 0 0 150.45 131.09
  Q 164.36 140.49 182.97 151.99
  Q 183.96 152.61 184.70 153.44
  A 0.73 0.73 0.0 0 1 184.57 154.53
  L 171.58 163.39
  A 1.40 1.39 -44.5 0 1 170.01 163.38
  Q 144.98 145.85 121.79 131.08
  A 1.00 1.00 0.0 0 1 121.80 129.39
  Q 141.50 116.93 159.12 105.15
  C 163.84 101.99 164.63 97.04 164.47 91.80
  Q 164.41 89.76 165.98 88.71
  Q 172.51 84.35 178.64 80.36
  Q 179.61 79.73 180.67 79.85
  A 0.46 0.45 6.1 0 1 181.06 80.33
  Q 180.45 90.29 179.60 99.93
  Q 179.07 106.03 177.16 109.29
  Q 174.26 114.24 170.08 116.86
  Q 160.66 122.78 150.45 129.56
  Z"
/>
</svg>
