<?xml version="1.0" encoding="UTF-8" standalone="no"?>
<!DOCTYPE svg PUBLIC "-//W3C//DTD SVG 1.1//EN" "http://www.w3.org/Graphics/SVG/1.1/DTD/svg11.dtd">
<svg xmlns="http://www.w3.org/2000/svg" version="1.1" viewBox="0.00 0.00 250.00 208.00">
<path fill="#0b866b" d="
  M 56.75 71.01
  L 57.00 124.30
  A 0.32 0.32 0.0 0 1 56.50 124.57
  L 38.93 113.25
  A 0.32 0.32 0.0 0 1 38.78 112.99
  L 38.79 61.32
  A 0.32 0.32 0.0 0 1 38.93 61.06
  L 88.99 27.80
  A 0.32 0.32 0.0 0 1 89.34 27.80
  L 105.99 38.29
  A 0.32 0.32 0.0 0 1 105.99 38.83
  L 56.90 70.74
  A 0.32 0.32 0.0 0 0 56.75 71.01
  Z"
/>
<path fill="#0b866b" d="
  M 89.77 114.54
  L 136.92 82.98
  A 0.56 0.56 0.0 0 1 137.79 83.45
  L 137.82 102.75
  A 0.56 0.56 0.0 0 1 137.57 103.22
  L 89.23 135.44
  A 0.56 0.56 0.0 0 0 88.98 135.91
  L 89.16 170.89
  A 0.56 0.56 0.0 0 1 88.30 171.37
  L 71.51 160.50
  A 0.56 0.56 0.0 0 1 71.25 160.03
  L 71.25 82.89
  A 0.56 0.56 0.0 0 1 71.50 82.42
  L 122.50 49.10
  A 0.56 0.56 0.0 0 1 123.12 49.10
  L 138.83 59.36
  A 0.56 0.56 0.0 0 1 138.83 60.30
  L 89.12 92.45
  A 0.56 0.56 0.0 0 0 88.86 92.93
  L 88.90 114.07
  A 0.56 0.56 0.0 0 0 89.77 114.54
  Z"
/>
<path fill="#02a96d" d="
  M 154.19 134.43
  A 0.59 0.59 0.0 0 0 154.43 135.12
  Q 171.94 146.34 189.40 157.54
  Q 190.65 158.35 191.85 159.29
  A 0.36 0.36 0.0 0 1 191.84 159.87
  L 177.28 169.80
  Q 176.76 170.16 176.24 169.81
  L 123.22 134.85
  A 0.53 0.52 -44.2 0 1 123.24 133.96
  Q 140.39 123.24 164.06 107.14
  C 169.56 103.40 170.09 97.68 169.77 91.54
  A 1.52 1.50 -18.3 0 1 170.46 90.19
  L 186.03 80.23
  Q 187.79 79.11 187.58 81.19
  Q 186.69 90.05 186.20 98.22
  Q 185.66 107.15 184.03 110.78
  Q 181.52 116.39 175.32 120.25
  Q 165.03 126.66 155.46 132.84
  Q 154.55 133.42 154.19 134.43
  Z"
/>
</svg>
