<?xml version="1.0" encoding="UTF-8" standalone="no"?>
<!DOCTYPE svg PUBLIC "-//W3C//DTD SVG 1.1//EN" "http://www.w3.org/Graphics/SVG/1.1/DTD/svg11.dtd">
<svg xmlns="http://www.w3.org/2000/svg" version="1.1" viewBox="0.00 0.00 250.00 208.00">
<path fill="#c0c0c0" d="
  M 56.76 71.01
  L 57.00 124.28
  A 0.33 0.33 0.0 0 1 56.49 124.56
  L 38.93 113.24
  A 0.33 0.33 0.0 0 1 38.78 112.96
  L 38.78 61.34
  A 0.33 0.33 0.0 0 1 38.93 61.06
  L 88.98 27.81
  A 0.33 0.33 0.0 0 1 89.34 27.80
  L 105.95 38.29
  A 0.33 0.33 0.0 0 1 105.96 38.85
  L 56.91 70.73
  A 0.33 0.33 0.0 0 0 56.76 71.01
  Z"
/>
<path fill="#c0c0c0" d="
  M 89.11 113.94
  A 0.57 0.57 0.0 0 0 90.00 114.39
  L 137.03 82.92
  A 0.50 0.49 -16.8 0 1 137.80 83.33
  L 137.78 101.93
  A 2.12 2.12 0.0 0 1 136.83 103.70
  L 89.70 135.11
  A 1.67 1.65 73.3 0 0 88.97 136.49
  L 89.15 170.99
  A 0.49 0.49 0.0 0 1 88.39 171.41
  L 72.36 161.04
  A 2.40 2.40 0.0 0 1 71.27 159.03
  Q 71.22 123.43 71.25 84.55
  C 71.26 81.99 72.68 81.56 75.06 80.03
  Q 97.84 65.33 121.72 49.57
  A 1.93 1.92 44.8 0 1 123.83 49.57
  L 138.97 59.47
  Q 139.53 59.84 138.97 60.20
  L 89.32 92.32
  A 0.74 0.74 0.0 0 0 88.97 92.93
  Q 88.70 103.54 89.11 113.94
  Z"
/>
<path fill="#fffeff" d="
  M 154.26 134.10
  A 0.67 0.67 0.0 0 0 154.41 135.10
  L 191.38 158.82
  Q 192.39 159.47 191.40 160.15
  L 177.27 169.80
  A 0.94 0.92 44.2 0 1 176.23 169.80
  L 123.22 134.84
  A 0.51 0.51 0.0 0 1 123.23 133.98
  Q 141.96 122.22 161.13 109.11
  C 163.48 107.50 166.47 105.71 167.85 103.30
  C 169.76 99.96 170.00 95.46 169.77 91.64
  A 1.64 1.64 0.0 0 1 170.52 90.16
  L 186.76 79.78
  A 0.56 0.56 0.0 0 1 187.62 80.30
  Q 186.50 92.58 185.66 104.15
  C 185.13 111.52 180.98 116.79 174.74 120.64
  Q 165.36 126.43 156.48 132.15
  Q 155.23 132.96 154.26 134.10
  Z"
/>
</svg>
