<?xml version="1.0" encoding="UTF-8" standalone="no"?>
<!DOCTYPE svg PUBLIC "-//W3C//DTD SVG 1.1//EN" "http://www.w3.org/Graphics/SVG/1.1/DTD/svg11.dtd">
<svg xmlns="http://www.w3.org/2000/svg" version="1.1" viewBox="0.00 0.00 250.00 208.00">
<path fill="#cba22e" d="
  M 56.49 124.56
  L 38.92 113.26
  A 0.33 0.33 0.0 0 1 38.77 112.98
  L 38.79 61.33
  A 0.33 0.33 0.0 0 1 38.94 61.05
  L 88.98 27.81
  A 0.33 0.33 0.0 0 1 89.34 27.80
  L 105.95 38.29
  A 0.33 0.33 0.0 0 1 105.96 38.84
  L 56.89 70.75
  A 0.33 0.33 0.0 0 0 56.74 71.03
  L 57.00 124.28
  A 0.33 0.33 0.0 0 1 56.49 124.56
  Z"
/>
<path fill="#cba22e" d="
  M 89.74 114.56
  L 136.93 82.98
  A 0.55 0.55 0.0 0 1 137.79 83.44
  L 137.80 102.77
  A 0.55 0.55 0.0 0 1 137.55 103.22
  L 89.22 135.44
  A 0.55 0.55 0.0 0 0 88.97 135.90
  L 89.14 170.88
  A 0.55 0.55 0.0 0 1 88.29 171.35
  L 71.51 160.50
  A 0.55 0.55 0.0 0 1 71.26 160.04
  L 71.24 82.90
  A 0.55 0.55 0.0 0 1 71.49 82.44
  L 122.53 49.11
  A 0.55 0.55 0.0 0 1 123.13 49.11
  L 138.81 59.38
  A 0.55 0.55 0.0 0 1 138.81 60.30
  L 89.09 92.47
  A 0.55 0.55 0.0 0 0 88.84 92.93
  L 88.89 114.10
  A 0.55 0.55 0.0 0 0 89.74 114.56
  Z"
/>
<path fill="#fbcd21" d="
  M 154.20 134.25
  A 0.62 0.62 0.0 0 0 154.39 135.10
  L 191.38 158.82
  Q 192.39 159.47 191.40 160.15
  L 177.07 169.93
  A 0.58 0.57 -45.4 0 1 176.43 169.94
  L 123.36 134.94
  Q 122.56 134.42 123.37 133.90
  Q 144.74 120.42 164.43 106.85
  C 169.60 103.28 170.10 97.33 169.77 91.63
  A 1.61 1.60 -18.0 0 1 170.52 90.17
  L 186.20 80.13
  Q 187.83 79.08 187.61 81.02
  Q 186.55 90.35 185.92 101.51
  C 185.36 111.33 181.79 116.30 173.61 121.37
  Q 164.79 126.84 156.14 132.36
  Q 154.85 133.18 154.20 134.25
  Z"
/>
</svg>
